<?xml version="1.0" standalone="no"?>
<!DOCTYPE svg PUBLIC "-//W3C//DTD SVG 20010904//EN"
 "http://www.w3.org/TR/2001/REC-SVG-20010904/DTD/svg10.dtd">
<svg version="1.0" xmlns="http://www.w3.org/2000/svg"
 width="512.000000pt" height="512.000000pt" viewBox="0 0 512.000000 512.000000"
 preserveAspectRatio="xMidYMid meet">

<g transform="translate(0.000000,512.000000) scale(0.100000,-0.100000)"
fill="#000000" stroke="none">
<path d="M2375 5054 c-16 -2 -73 -9 -125 -15 -435 -49 -869 -231 -1240 -518
-110 -85 -327 -302 -412 -412 -277 -357 -445 -752 -515 -1206 -23 -150 -23
-536 0 -686 112 -727 493 -1334 1087 -1732 330 -221 669 -348 1085 -407 135
-19 503 -16 650 5 373 55 731 192 1035 395 617 413 996 1025 1102 1777 17 119
16 493 -1 615 -88 635 -394 1199 -866 1597 -357 302 -802 502 -1265 568 -108
16 -467 29 -535 19z m1278 -1058 c381 -113 637 -448 637 -835 0 -335 -182
-626 -485 -775 -119 -59 -197 -82 -321 -94 l-79 -8 -405 -293 c-223 -161 -411
-299 -418 -305 -7 -7 -20 -44 -27 -82 -38 -182 -176 -359 -346 -443 -358 -176
-780 -5 -914 370 l-26 74 -216 85 c-118 46 -217 89 -219 94 -2 6 -3 192 -2
412 l3 402 374 -149 c342 -137 375 -149 395 -136 58 39 172 69 276 74 l105 6
270 383 270 384 7 71 c38 363 286 664 631 764 100 29 148 34 277 30 97 -2 144
-9 213 -29z"/>
<path d="M3253 3722 c-209 -62 -375 -237 -419 -441 -42 -199 13 -378 161 -527
86 -87 161 -131 270 -159 77 -20 221 -19 299 1 188 48 350 203 409 389 31 98
31 252 0 350 -53 167 -198 316 -366 375 -88 31 -267 37 -354 12z m299 -240
c62 -27 143 -104 176 -167 24 -45 27 -61 27 -155 0 -94 -3 -110 -27 -155 -32
-62 -113 -139 -176 -168 -72 -33 -207 -31 -282 4 -246 115 -276 452 -55 605
29 19 72 42 96 50 62 20 181 13 241 -14z"/>
<path d="M1831 2211 c-10 -7 -8 -10 10 -16 13 -4 73 -28 133 -53 127 -53 194
-110 242 -207 26 -54 29 -70 29 -160 0 -90 -3 -106 -29 -160 -75 -151 -234
-237 -399 -214 -30 4 -112 30 -183 58 -72 28 -133 51 -137 51 -14 0 16 -44 66
-97 99 -105 209 -153 351 -153 144 0 251 46 350 149 252 266 126 703 -231 796
-63 16 -180 20 -202 6z"/>
</g>
</svg>
